<?xml version="1.0" encoding="UTF-8"?>
<!DOCTYPE svg PUBLIC "-//W3C//DTD SVG 1.1//EN" "http://www.w3.org/Graphics/SVG/1.1/DTD/svg11.dtd">
<svg xmlns="http://www.w3.org/2000/svg" version="1.1" width="512px" height="512px" style="shape-rendering:geometricPrecision; text-rendering:geometricPrecision; image-rendering:optimizeQuality; fill-rule:evenodd; clip-rule:evenodd" xmlns:xlink="http://www.w3.org/1999/xlink">
<g><path style="opacity:0.984" fill="#030202" d="M 245.5,-0.5 C 252.167,-0.5 258.833,-0.5 265.5,-0.5C 287.335,5.67198 300.002,20.0053 303.5,42.5C 305.162,51.6619 301.495,55.8285 292.5,55C 291.069,54.5348 289.903,53.7014 289,52.5C 286.78,24.5965 271.946,12.7631 244.5,17C 230.556,23.2895 223.389,34.1228 223,49.5C 221.305,54.5988 217.805,56.4321 212.5,55C 192.831,42.3994 176.331,45.5661 163,64.5C 162.138,66.087 161.471,67.7536 161,69.5C 159.788,76.087 159.121,82.7536 159,89.5C 148.47,95.8638 143.303,105.197 143.5,117.5C 146.047,139.18 158.047,147.347 179.5,142C 186.557,140.274 191.89,136.274 195.5,130C 200.324,127.554 204.491,128.387 208,132.5C 222.698,154.589 243.198,163.089 269.5,158C 284.18,153.972 295.346,145.472 303,132.5C 306.509,128.387 310.676,127.554 315.5,130C 325.613,143.366 338.613,147.032 354.5,141C 363.352,135.652 367.685,127.819 367.5,117.5C 367.708,105.204 362.542,95.8712 352,89.5C 354.015,66.8229 344.182,52.4896 322.5,46.5C 320.673,44.5128 319.673,42.1795 319.5,39.5C 319.808,34.5255 322.474,31.8589 327.5,31.5C 353.706,37.8725 367.206,54.5392 368,81.5C 377.37,89.23 382.87,99.23 384.5,111.5C 403.1,120.599 419.6,132.599 434,147.5C 439.872,153.909 444.205,161.242 447,169.5C 449.175,181.65 444.341,189.483 432.5,193C 424.064,193.847 415.731,193.347 407.5,191.5C 394.876,187.509 382.542,183.009 370.5,178C 377.487,201.953 376.987,225.786 369,249.5C 365.711,256.588 361.877,263.255 357.5,269.5C 338.63,287.763 315.963,298.263 289.5,301C 255.136,306.468 221.469,303.801 188.5,293C 175.147,287.658 163.481,279.825 153.5,269.5C 139.086,248.847 133.253,225.847 136,200.5C 136.749,193.002 138.249,185.669 140.5,178.5C 140.167,178.167 139.833,177.833 139.5,177.5C 134.555,180.033 129.555,182.366 124.5,184.5C 117.341,186.664 110.341,188.997 103.5,191.5C 95.2695,193.347 86.9361,193.847 78.5,193C 66.6586,189.483 61.8252,181.65 64,169.5C 67.8817,158.246 74.3817,148.746 83.5,141C 96.4435,129.191 110.777,119.357 126.5,111.5C 128.13,99.23 133.63,89.23 143,81.5C 143.482,55.3613 156.315,38.8613 181.5,32C 190.929,31.1047 200.262,31.6047 209.5,33.5C 215.367,15.6323 227.367,4.29896 245.5,-0.5 Z"/></g>
<g><path style="opacity:1" fill="#e5e5e5" d="M 303.5,42.5 C 308.513,40.0506 313.847,39.0506 319.5,39.5C 319.673,42.1795 320.673,44.5128 322.5,46.5C 344.182,52.4896 354.015,66.8229 352,89.5C 362.542,95.8712 367.708,105.204 367.5,117.5C 352.021,129.509 335.687,130.676 318.5,121C 314.5,120.333 310.5,120.333 306.5,121C 300.833,125.333 295.167,129.667 289.5,134C 265.42,147.182 241.753,146.515 218.5,132C 214.12,127.952 209.454,124.285 204.5,121C 200.5,120.333 196.5,120.333 192.5,121C 175.262,130.674 158.929,129.507 143.5,117.5C 143.303,105.197 148.47,95.8638 159,89.5C 159.121,82.7536 159.788,76.087 161,69.5C 161.471,67.7536 162.138,66.087 163,64.5C 176.331,45.5661 192.831,42.3994 212.5,55C 217.805,56.4321 221.305,54.5988 223,49.5C 223.389,34.1228 230.556,23.2895 244.5,17C 271.946,12.7631 286.78,24.5965 289,52.5C 289.903,53.7014 291.069,54.5348 292.5,55C 301.495,55.8285 305.162,51.6619 303.5,42.5 Z"/></g>
<g><path style="opacity:1" fill="#cbcbcb" d="M 143.5,117.5 C 158.929,129.507 175.262,130.674 192.5,121C 196.5,120.333 200.5,120.333 204.5,121C 209.454,124.285 214.12,127.952 218.5,132C 241.753,146.515 265.42,147.182 289.5,134C 295.167,129.667 300.833,125.333 306.5,121C 310.5,120.333 314.5,120.333 318.5,121C 335.687,130.676 352.021,129.509 367.5,117.5C 367.685,127.819 363.352,135.652 354.5,141C 338.613,147.032 325.613,143.366 315.5,130C 310.676,127.554 306.509,128.387 303,132.5C 295.346,145.472 284.18,153.972 269.5,158C 243.198,163.089 222.698,154.589 208,132.5C 204.491,128.387 200.324,127.554 195.5,130C 191.89,136.274 186.557,140.274 179.5,142C 158.047,147.347 146.047,139.18 143.5,117.5 Z"/></g>
<g><path style="opacity:1" fill="#f3b592" d="M 141.5,158.5 C 130.299,154.292 123.299,146.292 120.5,134.5C 123.052,132.057 126.052,130.39 129.5,129.5C 130.229,134.293 132.063,138.626 135,142.5C 138.453,147.298 142.62,151.298 147.5,154.5C 145.754,156.252 143.754,157.585 141.5,158.5 Z"/></g>
<g><path style="opacity:1" fill="#f3b491" d="M 390.5,134.5 C 387.729,146.267 380.729,154.267 369.5,158.5C 367.246,157.585 365.246,156.252 363.5,154.5C 368.38,151.298 372.547,147.298 376,142.5C 378.937,138.626 380.771,134.293 381.5,129.5C 384.948,130.39 387.948,132.057 390.5,134.5 Z"/></g>
<g><path style="opacity:1" fill="#fcd0b3" d="M 120.5,134.5 C 123.299,146.292 130.299,154.292 141.5,158.5C 122.81,170.175 102.477,176.175 80.5,176.5C 80.3379,174.473 80.5045,172.473 81,170.5C 91.2083,155.119 104.375,143.119 120.5,134.5 Z"/></g>
<g><path style="opacity:1" fill="#facfb2" d="M 390.5,134.5 C 406.625,143.119 419.792,155.119 430,170.5C 430.495,172.473 430.662,174.473 430.5,176.5C 420.577,177.886 410.91,176.719 401.5,173C 390.307,169.218 379.64,164.385 369.5,158.5C 380.729,154.267 387.729,146.267 390.5,134.5 Z"/></g>
<g><path style="opacity:1" fill="#f5b693" d="M 350.5,166.5 C 338.992,169.203 328.326,167.37 318.5,161C 314.5,160.333 310.5,160.333 306.5,161C 301.546,164.285 296.88,167.952 292.5,172C 270.048,185.881 247.048,186.881 223.5,175C 216.989,170.577 210.655,165.911 204.5,161C 200.5,160.333 196.5,160.333 192.5,161C 185.382,165.186 177.716,167.686 169.5,168.5C 160.696,223.249 183.363,256.249 237.5,267.5C 240.113,271.615 243.279,275.282 247,278.5C 247.498,281.482 247.665,284.482 247.5,287.5C 227.373,287.575 208.04,283.741 189.5,276C 163.427,263.043 150.76,241.876 151.5,212.5C 151.972,194.139 155.639,176.473 162.5,159.5C 176.123,160.679 188.457,157.345 199.5,149.5C 228.85,179.447 261.517,183.614 297.5,162C 302.316,158.019 306.982,153.852 311.5,149.5C 322.389,157.973 334.723,161.307 348.5,159.5C 348.878,161.921 349.545,164.254 350.5,166.5 Z"/></g>
<g><path style="opacity:1" fill="#fed2b5" d="M 350.5,166.5 C 352.396,170.297 353.729,174.297 354.5,178.5C 349.926,174.624 345.426,174.624 341,178.5C 340.077,180.034 339.577,181.701 339.5,183.5C 340.983,189.78 342.149,196.113 343,202.5C 348.164,209.112 353.33,209.112 358.5,202.5C 361.306,219.66 358.473,235.993 350,251.5C 347.189,256.134 343.689,260.134 339.5,263.5C 320.399,268.821 300.899,271.488 281,271.5C 277.648,271.498 274.482,271.165 271.5,270.5C 274.111,266.049 276.944,261.716 280,257.5C 286.164,245.996 283.331,237.496 271.5,232C 260.833,231.333 250.167,231.333 239.5,232C 230.954,235.261 227.121,241.428 228,250.5C 230.658,256.485 233.824,262.152 237.5,267.5C 183.363,256.249 160.696,223.249 169.5,168.5C 177.716,167.686 185.382,165.186 192.5,161C 196.5,160.333 200.5,160.333 204.5,161C 210.655,165.911 216.989,170.577 223.5,175C 247.048,186.881 270.048,185.881 292.5,172C 296.88,167.952 301.546,164.285 306.5,161C 310.5,160.333 314.5,160.333 318.5,161C 328.326,167.37 338.992,169.203 350.5,166.5 Z"/></g>
<g><path style="opacity:1" fill="#fdfcfb" d="M 354.5,178.5 C 357.246,186.235 358.579,194.235 358.5,202.5C 353.33,209.112 348.164,209.112 343,202.5C 342.149,196.113 340.983,189.78 339.5,183.5C 339.577,181.701 340.077,180.034 341,178.5C 345.426,174.624 349.926,174.624 354.5,178.5 Z"/></g>
<g><path style="opacity:1" fill="#080605" d="M 196.5,175.5 C 201.152,174.984 204.652,176.651 207,180.5C 207.839,185.921 207.506,191.254 206,196.5C 202.498,199.601 198.665,200.101 194.5,198C 193.107,196.829 192.273,195.329 192,193.5C 191.333,189.167 191.333,184.833 192,180.5C 193.025,178.313 194.525,176.646 196.5,175.5 Z"/></g>
<g><path style="opacity:1" fill="#080605" d="M 308.5,175.5 C 313.152,174.984 316.652,176.651 319,180.5C 319.839,185.921 319.506,191.254 318,196.5C 314.498,199.601 310.665,200.101 306.5,198C 305.107,196.829 304.273,195.329 304,193.5C 303.333,189.167 303.333,184.833 304,180.5C 305.025,178.313 306.525,176.646 308.5,175.5 Z"/></g>
<g><path style="opacity:1" fill="#e5e5e5" d="M 153.5,269.5 C 162.462,285.007 175.462,295.841 192.5,302C 222.539,311.39 253.205,314.056 284.5,310C 305.322,307.748 324.322,300.748 341.5,289C 348.203,283.479 353.537,276.979 357.5,269.5C 361.877,263.255 365.711,256.588 369,249.5C 376.987,225.786 377.487,201.953 370.5,178C 382.542,183.009 394.876,187.509 407.5,191.5C 406.222,195.667 404.556,199.667 402.5,203.5C 405.077,204.943 407.41,206.61 409.5,208.5C 407.809,211.645 407.309,214.979 408,218.5C 418.327,233.597 417.66,248.264 406,262.5C 405.107,265.916 405.607,269.083 407.5,272C 426.2,279.349 433.7,292.849 430,312.5C 428.444,317.28 426.111,321.613 423,325.5C 419.317,328.187 415.983,331.187 413,334.5C 413.901,339.745 414.735,345.078 415.5,350.5C 415.286,362.864 410.12,372.531 400,379.5C 402.021,393.598 398.188,405.765 388.5,416C 379.599,422.38 369.766,424.547 359,422.5C 356.968,422.858 355.134,423.692 353.5,425C 351.928,431.413 350.428,437.913 349,444.5C 348.623,445.942 347.79,446.942 346.5,447.5C 339.522,448.093 332.856,446.927 326.5,444C 323.5,443.333 320.5,443.333 317.5,444C 311.937,448.409 306.271,452.576 300.5,456.5C 296.25,453.013 291.75,452.679 287,455.5C 285.726,458.391 284.226,461.058 282.5,463.5C 267.376,463.605 255.043,457.772 245.5,446C 241.07,443.73 236.403,443.063 231.5,444C 207.194,451.761 189.361,444.261 178,421.5C 176.842,416.882 176.008,412.216 175.5,407.5C 157.167,408.917 143,401.917 133,386.5C 128.958,378.665 126.958,370.332 127,361.5C 122.216,356.044 118.216,350.044 115,343.5C 112.098,333.398 110.764,323.065 111,312.5C 100.623,302.746 95.4564,290.746 95.5,276.5C 97.9422,274.774 100.609,273.274 103.5,272C 106.321,267.25 105.987,262.75 102.5,258.5C 105.004,253.482 108.504,249.149 113,245.5C 115.27,241.07 115.937,236.403 115,231.5C 109.653,218.354 110.653,205.687 118,193.5C 120.41,190.603 122.577,187.603 124.5,184.5C 129.555,182.366 134.555,180.033 139.5,177.5C 139.833,177.833 140.167,178.167 140.5,178.5C 138.249,185.669 136.749,193.002 136,200.5C 133.253,225.847 139.086,248.847 153.5,269.5 Z"/></g>
<g><path style="opacity:1" fill="#cbcbcb" d="M 124.5,184.5 C 122.577,187.603 120.41,190.603 118,193.5C 110.653,205.687 109.653,218.354 115,231.5C 115.937,236.403 115.27,241.07 113,245.5C 108.504,249.149 105.004,253.482 102.5,258.5C 95.0923,248.791 93.5923,238.124 98,226.5C 100.533,223.148 102.366,219.481 103.5,215.5C 103.305,212.782 102.305,210.449 100.5,208.5C 103.149,206.86 105.816,205.193 108.5,203.5C 106.278,199.724 104.611,195.724 103.5,191.5C 110.341,188.997 117.341,186.664 124.5,184.5 Z"/></g>
<g><path style="opacity:0.969" fill="#020101" d="M 100.5,208.5 C 102.305,210.449 103.305,212.782 103.5,215.5C 102.366,219.481 100.533,223.148 98,226.5C 93.5923,238.124 95.0923,248.791 102.5,258.5C 105.987,262.75 106.321,267.25 103.5,272C 100.609,273.274 97.9422,274.774 95.5,276.5C 83.39,283.602 78.2233,294.268 80,308.5C 81.245,314.322 83.5784,319.655 87,324.5C 91.0176,327.521 94.6843,330.854 98,334.5C 97.0985,339.745 96.2652,345.078 95.5,350.5C 95.7196,358.66 98.2196,365.993 103,372.5C 106.667,374.833 109.667,377.833 112,381.5C 109.168,398.03 114.668,410.864 128.5,420C 135.681,423.532 143.181,424.365 151,422.5C 154.466,422.899 157.132,424.566 159,427.5C 159.911,451.748 172.411,463.581 196.5,463C 203.327,461.587 209.327,458.587 214.5,454C 217.916,453.107 221.083,453.607 224,455.5C 234.277,478.391 250.777,484.557 273.5,474C 277.798,471.541 280.798,468.041 282.5,463.5C 284.226,461.058 285.726,458.391 287,455.5C 291.75,452.679 296.25,453.013 300.5,456.5C 307.949,463.027 316.616,465.194 326.5,463C 331.675,461.613 336.342,459.28 340.5,456C 343.381,453.721 345.381,450.888 346.5,447.5C 347.79,446.942 348.623,445.942 349,444.5C 350.428,437.913 351.928,431.413 353.5,425C 355.134,423.692 356.968,422.858 359,422.5C 369.766,424.547 379.599,422.38 388.5,416C 398.188,405.765 402.021,393.598 400,379.5C 410.12,372.531 415.286,362.864 415.5,350.5C 414.735,345.078 413.901,339.745 413,334.5C 415.983,331.187 419.317,328.187 423,325.5C 426.111,321.613 428.444,317.28 430,312.5C 433.7,292.849 426.2,279.349 407.5,272C 405.607,269.083 405.107,265.916 406,262.5C 417.66,248.264 418.327,233.597 408,218.5C 407.309,214.979 407.809,211.645 409.5,208.5C 413.574,207.01 417.574,207.176 421.5,209C 430.549,221.032 433.715,234.532 431,249.5C 430.094,253.884 428.594,258.051 426.5,262C 449.32,281.127 453.82,303.96 440,330.5C 437.203,334.299 434.036,337.799 430.5,341C 434.324,359.196 429.49,374.696 416,387.5C 416.319,412.499 404.819,429.332 381.5,438C 376.849,438.899 372.182,439.732 367.5,440.5C 365.753,447.327 362.92,453.66 359,459.5C 356.558,474.483 354.225,489.483 352,504.5C 351.47,507.585 349.97,509.918 347.5,511.5C 334.167,511.5 320.833,511.5 307.5,511.5C 305.03,509.918 303.53,507.585 303,504.5C 301.39,494.506 299.89,484.506 298.5,474.5C 293.844,477.637 289.51,481.471 285.5,486C 269.114,496.689 251.78,498.356 233.5,491C 226.259,487.094 220.259,481.761 215.5,475C 214.552,474.517 213.552,474.351 212.5,474.5C 211.192,486.353 209.025,498.02 206,509.5C 205.005,510.066 204.172,510.733 203.5,511.5C 190.167,511.5 176.833,511.5 163.5,511.5C 161.03,509.918 159.53,507.585 159,504.5C 156.775,489.483 154.442,474.483 152,459.5C 148.08,453.66 145.247,447.327 143.5,440.5C 118.468,438.63 102.635,425.63 96,401.5C 95.6667,396.833 95.3333,392.167 95,387.5C 81.5097,374.696 76.6764,359.196 80.5,341C 63.3579,324.926 58.8579,305.759 67,283.5C 71.393,275.112 77.2264,267.946 84.5,262C 78.8664,249.168 78.033,236.002 82,222.5C 83.6651,217.51 86.1651,213.01 89.5,209C 93.1251,207.253 96.7917,207.086 100.5,208.5 Z"/></g>
<g><path style="opacity:1" fill="#fa908a" d="M 244.5,247.5 C 251.863,247.169 259.197,247.503 266.5,248.5C 262.833,253.833 259.167,259.167 255.5,264.5C 251.387,259.067 247.72,253.401 244.5,247.5 Z"/></g>
<g><path style="opacity:1" fill="#f4b592" d="M 339.5,263.5 C 329.342,272.249 317.675,278.416 304.5,282C 290.997,285.067 277.33,286.901 263.5,287.5C 263.335,284.482 263.502,281.482 264,278.5C 266.73,276.033 269.23,273.367 271.5,270.5C 274.482,271.165 277.648,271.498 281,271.5C 300.899,271.488 320.399,268.821 339.5,263.5 Z"/></g>
<g><path style="opacity:1" fill="#cacaca" d="M 153.5,269.5 C 163.481,279.825 175.147,287.658 188.5,293C 221.469,303.801 255.136,306.468 289.5,301C 315.963,298.263 338.63,287.763 357.5,269.5C 353.537,276.979 348.203,283.479 341.5,289C 324.322,300.748 305.322,307.748 284.5,310C 253.205,314.056 222.539,311.39 192.5,302C 175.462,295.841 162.462,285.007 153.5,269.5 Z"/></g>
<g><path style="opacity:1" fill="#cccccc" d="M 95.5,276.5 C 95.4564,290.746 100.623,302.746 111,312.5C 110.764,323.065 112.098,333.398 115,343.5C 118.216,350.044 122.216,356.044 127,361.5C 126.958,370.332 128.958,378.665 133,386.5C 143,401.917 157.167,408.917 175.5,407.5C 176.008,412.216 176.842,416.882 178,421.5C 189.361,444.261 207.194,451.761 231.5,444C 236.403,443.063 241.07,443.73 245.5,446C 255.043,457.772 267.376,463.605 282.5,463.5C 280.798,468.041 277.798,471.541 273.5,474C 250.777,484.557 234.277,478.391 224,455.5C 221.083,453.607 217.916,453.107 214.5,454C 209.327,458.587 203.327,461.587 196.5,463C 172.411,463.581 159.911,451.748 159,427.5C 157.132,424.566 154.466,422.899 151,422.5C 143.181,424.365 135.681,423.532 128.5,420C 114.668,410.864 109.168,398.03 112,381.5C 109.667,377.833 106.667,374.833 103,372.5C 98.2196,365.993 95.7196,358.66 95.5,350.5C 96.2652,345.078 97.0985,339.745 98,334.5C 94.6843,330.854 91.0176,327.521 87,324.5C 83.5784,319.655 81.245,314.322 80,308.5C 78.2233,294.268 83.39,283.602 95.5,276.5 Z"/></g>
<g><path style="opacity:1" fill="#cbcbcb" d="M 346.5,447.5 C 345.381,450.888 343.381,453.721 340.5,456C 336.342,459.28 331.675,461.613 326.5,463C 316.616,465.194 307.949,463.027 300.5,456.5C 306.271,452.576 311.937,448.409 317.5,444C 320.5,443.333 323.5,443.333 326.5,444C 332.856,446.927 339.522,448.093 346.5,447.5 Z"/></g>
<g><path style="opacity:1" fill="#f6b793" d="M 193.5,487.5 C 190.15,487.665 186.817,487.498 183.5,487C 179.861,485.675 176.194,484.508 172.5,483.5C 171.908,480.873 171.575,478.206 171.5,475.5C 178.836,478.582 186.503,479.916 194.5,479.5C 194.425,482.206 194.092,484.873 193.5,487.5 Z"/></g>
<g><path style="opacity:1" fill="#f3b592" d="M 338.5,482.5 C 331.924,485.816 324.924,487.483 317.5,487.5C 316.908,484.873 316.575,482.206 316.5,479.5C 324.389,479.352 332.055,478.019 339.5,475.5C 339.552,477.903 339.219,480.236 338.5,482.5 Z"/></g>
<g><path style="opacity:1" fill="#fdd1b4" d="M 172.5,483.5 C 176.194,484.508 179.861,485.675 183.5,487C 186.817,487.498 190.15,487.665 193.5,487.5C 193.425,490.206 193.092,492.873 192.5,495.5C 186.5,495.5 180.5,495.5 174.5,495.5C 173.994,491.439 173.327,487.439 172.5,483.5 Z"/></g>
<g><path style="opacity:1" fill="#fdd1b4" d="M 338.5,482.5 C 337.752,486.812 337.086,491.146 336.5,495.5C 330.5,495.5 324.5,495.5 318.5,495.5C 317.908,492.873 317.575,490.206 317.5,487.5C 324.924,487.483 331.924,485.816 338.5,482.5 Z"/></g>
</svg>
